# Free SolidWorks .OBJ Exporter v2.0
# num_vertices: 156 

mtllib cylinder.mtl

v 0 0.35 0
v 7.34788079488412E-18 0.35 0.02
v 5.63465113682859E-03 0.35 1.91898594722899E-02
v 0.010812816349112 0.35 1.68250706566236E-02
v 1.51149914870852E-02 0.35 1.30972146789057E-02
v 1.81926399070904E-02 0.35 8.30830026003773E-03
v 1.97964288376187E-02 0.35 2.8462967654657E-03
v 1.97964288376187E-02 0.35 -2.8462967654657E-03
v 1.81926399070904E-02 0.35 -8.30830026003773E-03
v 1.51149914870852E-02 0.35 -1.30972146789057E-02
v 0.010812816349112 0.35 -1.68250706566236E-02
v 5.63465113682859E-03 0.35 -1.91898594722899E-02
v 0 0.35 -0.02
v -5.63465113682861E-03 0.35 -1.91898594722899E-02
v -0.010812816349112 0.35 -1.68250706566236E-02
v -1.51149914870852E-02 0.35 -1.30972146789057E-02
v -1.81926399070904E-02 0.35 -8.30830026003772E-03
v -1.97964288376187E-02 0.35 -2.8462967654657E-03
v -1.97964288376187E-02 0.35 2.84629676546572E-03
v -1.81926399070904E-02 0.35 8.30830026003774E-03
v -1.51149914870852E-02 0.35 1.30972146789057E-02
v -1.08128163491119E-02 0.35 1.68250706566236E-02
v -5.63465113682859E-03 0.35 0.01918985947229
v 0 0.2625 -0.02
v 0 0.35 -0.02
v 5.63465113682859E-03 0.35 -1.91898594722899E-02
v 0 0.175 -0.02
v 5.63465113682859E-03 0.2625 -1.91898594722899E-02
v 0 0.0875 -0.02
v 5.63465113682859E-03 0.175 -1.91898594722899E-02
v 0 0 -0.02
v 5.63465113682859E-03 0.0875 -1.91898594722899E-02
v 0.010812816349112 0.35 -1.68250706566236E-02
v 0.010812816349112 0.2625 -1.68250706566236E-02
v 0.010812816349112 0.175 -1.68250706566236E-02
v 5.63465113682859E-03 0 -1.91898594722899E-02
v 0.010812816349112 0.0875 -1.68250706566236E-02
v 1.51149914870852E-02 0.35 -1.30972146789057E-02
v 1.51149914870852E-02 0.2625 -1.30972146789057E-02
v 1.51149914870852E-02 0.175 -1.30972146789057E-02
v 0.010812816349112 0 -1.68250706566236E-02
v 1.51149914870852E-02 0.0875 -1.30972146789057E-02
v 1.81926399070904E-02 0.35 -8.30830026003773E-03
v 1.81926399070904E-02 0.2625 -8.30830026003773E-03
v 1.81926399070904E-02 0.175 -8.30830026003773E-03
v 1.51149914870852E-02 0 -1.30972146789057E-02
v 1.81926399070904E-02 0.0875 -8.30830026003773E-03
v 1.97964288376187E-02 0.35 -2.8462967654657E-03
v 1.97964288376187E-02 0.2625 -2.8462967654657E-03
v 1.97964288376187E-02 0.175 -2.8462967654657E-03
v 1.81926399070904E-02 0 -8.30830026003773E-03
v 1.97964288376187E-02 0.0875 -2.8462967654657E-03
v 1.97964288376187E-02 0.35 2.8462967654657E-03
v 1.97964288376187E-02 0.2625 2.8462967654657E-03
v 1.97964288376187E-02 0.175 2.8462967654657E-03
v 1.97964288376187E-02 0 -2.8462967654657E-03
v 1.97964288376187E-02 0.0875 2.8462967654657E-03
v 1.81926399070904E-02 0.35 8.30830026003773E-03
v 1.81926399070904E-02 0.2625 8.30830026003773E-03
v 1.81926399070904E-02 0.175 8.30830026003773E-03
v 1.97964288376187E-02 0 2.8462967654657E-03
v 1.81926399070904E-02 0.0875 8.30830026003773E-03
v 1.51149914870852E-02 0.35 1.30972146789057E-02
v 1.51149914870852E-02 0.2625 1.30972146789057E-02
v 1.51149914870852E-02 0.175 1.30972146789057E-02
v 1.81926399070904E-02 0 8.30830026003773E-03
v 1.51149914870852E-02 0.0875 1.30972146789057E-02
v 0.010812816349112 0.35 1.68250706566236E-02
v 0.010812816349112 0.2625 1.68250706566236E-02
v 0.010812816349112 0.175 1.68250706566236E-02
v 1.51149914870852E-02 0 1.30972146789057E-02
v 0.010812816349112 0.0875 1.68250706566236E-02
v 5.63465113682859E-03 0.35 1.91898594722899E-02
v 5.63465113682859E-03 0.2625 1.91898594722899E-02
v 5.63465113682859E-03 0.175 1.91898594722899E-02
v 0.010812816349112 0 1.68250706566236E-02
v 5.63465113682859E-03 0.0875 1.91898594722899E-02
v 7.34788079488412E-18 0.35 0.02
v 2.44929359829471E-18 0.2625 0.02
v 2.44929359829471E-18 0.175 0.02
v 5.63465113682859E-03 0 1.91898594722899E-02
v 2.44929359829471E-18 0.0875 0.02
v -5.63465113682859E-03 0.35 0.01918985947229
v -5.63465113682859E-03 0.2625 0.01918985947229
v -5.63465113682859E-03 0.175 0.01918985947229
v 2.44929359829471E-18 0 0.02
v -5.63465113682859E-03 0.0875 0.01918985947229
v -1.08128163491119E-02 0.35 1.68250706566236E-02
v -1.08128163491119E-02 0.2625 1.68250706566236E-02
v -1.08128163491119E-02 0.175 1.68250706566236E-02
v -5.63465113682859E-03 0 0.01918985947229
v -1.08128163491119E-02 0.0875 1.68250706566236E-02
v -1.51149914870852E-02 0.35 1.30972146789057E-02
v -1.51149914870852E-02 0.2625 1.30972146789057E-02
v -1.51149914870852E-02 0.175 1.30972146789057E-02
v -1.08128163491119E-02 0 1.68250706566236E-02
v -1.51149914870852E-02 0.0875 1.30972146789057E-02
v -1.81926399070904E-02 0.35 8.30830026003774E-03
v -1.81926399070904E-02 0.2625 8.30830026003774E-03
v -1.81926399070904E-02 0.175 8.30830026003774E-03
v -1.51149914870852E-02 0 1.30972146789057E-02
v -1.81926399070904E-02 0.0875 8.30830026003774E-03
v -1.97964288376187E-02 0.35 2.84629676546572E-03
v -1.97964288376187E-02 0.2625 2.84629676546572E-03
v -1.97964288376187E-02 0.175 2.84629676546572E-03
v -1.81926399070904E-02 0 8.30830026003774E-03
v -1.97964288376187E-02 0.0875 2.84629676546572E-03
v -1.97964288376187E-02 0.35 -2.8462967654657E-03
v -1.97964288376187E-02 0.2625 -2.8462967654657E-03
v -1.97964288376187E-02 0.175 -2.8462967654657E-03
v -1.97964288376187E-02 0 2.84629676546572E-03
v -1.97964288376187E-02 0.0875 -2.8462967654657E-03
v -1.81926399070904E-02 0.35 -8.30830026003772E-03
v -1.81926399070904E-02 0.2625 -8.30830026003772E-03
v -1.81926399070904E-02 0.175 -8.30830026003772E-03
v -1.97964288376187E-02 0 -2.8462967654657E-03
v -1.81926399070904E-02 0.0875 -8.30830026003772E-03
v -1.51149914870852E-02 0.35 -1.30972146789057E-02
v -1.51149914870852E-02 0.2625 -1.30972146789057E-02
v -1.51149914870852E-02 0.175 -1.30972146789057E-02
v -1.81926399070904E-02 0 -8.30830026003772E-03
v -1.51149914870852E-02 0.0875 -1.30972146789057E-02
v -0.010812816349112 0.35 -1.68250706566236E-02
v -0.010812816349112 0.2625 -1.68250706566236E-02
v -0.010812816349112 0.175 -1.68250706566236E-02
v -1.51149914870852E-02 0 -1.30972146789057E-02
v -0.010812816349112 0.0875 -1.68250706566236E-02
v -5.63465113682861E-03 0.35 -1.91898594722899E-02
v -5.63465113682861E-03 0.2625 -1.91898594722899E-02
v -5.63465113682861E-03 0.175 -1.91898594722899E-02
v -0.010812816349112 0 -1.68250706566236E-02
v -5.63465113682861E-03 0.0875 -1.91898594722899E-02
v -5.63465113682861E-03 0 -1.91898594722899E-02
v 0 0 0
v 2.44929359829471E-18 0 0.02
v -5.63465113682859E-03 0 0.01918985947229
v -1.08128163491119E-02 0 1.68250706566236E-02
v -1.51149914870852E-02 0 1.30972146789057E-02
v -1.81926399070904E-02 0 8.30830026003774E-03
v -1.97964288376187E-02 0 2.84629676546572E-03
v -1.97964288376187E-02 0 -2.8462967654657E-03
v -1.81926399070904E-02 0 -8.30830026003772E-03
v -1.51149914870852E-02 0 -1.30972146789057E-02
v -0.010812816349112 0 -1.68250706566236E-02
v -5.63465113682861E-03 0 -1.91898594722899E-02
v 0 0 -0.02
v 5.63465113682859E-03 0 -1.91898594722899E-02
v 0.010812816349112 0 -1.68250706566236E-02
v 1.51149914870852E-02 0 -1.30972146789057E-02
v 1.81926399070904E-02 0 -8.30830026003773E-03
v 1.97964288376187E-02 0 -2.8462967654657E-03
v 1.97964288376187E-02 0 2.8462967654657E-03
v 1.81926399070904E-02 0 8.30830026003773E-03
v 1.51149914870852E-02 0 1.30972146789057E-02
v 0.010812816349112 0 1.68250706566236E-02
v 5.63465113682859E-03 0 1.91898594722899E-02
# 156 vertices

vn 0 1 0
vn 0 1 0
vn 0 1 0
vn 0 1 0
vn 0 1 0
vn 0 1 0
vn 0 1 0
vn 0 1 0
vn 0 1 0
vn 0 1 0
vn 0 1 0
vn 0 1 0
vn 0 1 0
vn 0 1 0
vn 0 1 0
vn 0 1 0
vn 0 1 0
vn 0 1 0
vn 0 1 0
vn 0 1 0
vn 0 1 0
vn 0 1 0
vn 0 1 0
vn 0 0 -1
vn 0 0 -1
vn 0.28173255684143 0 -0.959492973614497
vn 0 0 -1
vn 0.28173255684143 0 -0.959492973614497
vn 0 0 -1
vn 0.28173255684143 0 -0.959492973614497
vn 0 0 -1
vn 0.28173255684143 0 -0.959492973614497
vn 0.540640817455598 0 -0.841253532831181
vn 0.540640817455598 0 -0.841253532831181
vn 0.540640817455598 0 -0.841253532831181
vn 0.28173255684143 0 -0.959492973614497
vn 0.540640817455598 0 -0.841253532831181
vn 0.755749574354258 0 -0.654860733945285
vn 0.755749574354258 0 -0.654860733945285
vn 0.755749574354258 0 -0.654860733945285
vn 0.540640817455598 0 -0.841253532831181
vn 0.755749574354258 0 -0.654860733945285
vn 0.909631995354518 0 -0.415415013001886
vn 0.909631995354518 0 -0.415415013001886
vn 0.909631995354518 0 -0.415415013001886
vn 0.755749574354258 0 -0.654860733945285
vn 0.909631995354518 0 -0.415415013001886
vn 0.989821441880933 0 -0.142314838273285
vn 0.989821441880933 0 -0.142314838273285
vn 0.989821441880933 0 -0.142314838273285
vn 0.909631995354518 0 -0.415415013001886
vn 0.989821441880933 0 -0.142314838273285
vn 0.989821441880933 -0 0.142314838273285
vn 0.989821441880933 -0 0.142314838273285
vn 0.989821441880933 -0 0.142314838273285
vn 0.989821441880933 0 -0.142314838273285
vn 0.989821441880933 -0 0.142314838273285
vn 0.909631995354518 -0 0.415415013001886
vn 0.909631995354518 -0 0.415415013001886
vn 0.909631995354518 -0 0.415415013001886
vn 0.989821441880933 -0 0.142314838273285
vn 0.909631995354518 -0 0.415415013001886
vn 0.755749574354258 -0 0.654860733945285
vn 0.755749574354258 -0 0.654860733945285
vn 0.755749574354258 -0 0.654860733945285
vn 0.909631995354518 -0 0.415415013001886
vn 0.755749574354258 -0 0.654860733945285
vn 0.540640817455598 -0 0.841253532831181
vn 0.540640817455598 -0 0.841253532831181
vn 0.540640817455598 -0 0.841253532831181
vn 0.755749574354258 -0 0.654860733945285
vn 0.540640817455598 -0 0.841253532831181
vn 0.28173255684143 -0 0.959492973614497
vn 0.28173255684143 -0 0.959492973614497
vn 0.28173255684143 -0 0.959492973614497
vn 0.540640817455598 -0 0.841253532831181
vn 0.28173255684143 -0 0.959492973614497
vn 1.22464679914735E-16 -0 1
vn 1.22464679914735E-16 -0 1
vn 1.22464679914735E-16 -0 1
vn 0.28173255684143 -0 0.959492973614497
vn 1.22464679914735E-16 -0 1
vn -0.281732556841429 0 0.959492973614497
vn -0.281732556841429 0 0.959492973614497
vn -0.281732556841429 0 0.959492973614497
vn 1.22464679914735E-16 -0 1
vn -0.281732556841429 0 0.959492973614497
vn -0.540640817455597 0 0.841253532831181
vn -0.540640817455597 0 0.841253532831181
vn -0.540640817455597 0 0.841253532831181
vn -0.281732556841429 0 0.959492973614497
vn -0.540640817455597 0 0.841253532831181
vn -0.755749574354258 0 0.654860733945286
vn -0.755749574354258 0 0.654860733945286
vn -0.755749574354258 0 0.654860733945286
vn -0.540640817455597 0 0.841253532831181
vn -0.755749574354258 0 0.654860733945286
vn -0.909631995354518 0 0.415415013001887
vn -0.909631995354518 0 0.415415013001887
vn -0.909631995354518 0 0.415415013001887
vn -0.755749574354258 0 0.654860733945286
vn -0.909631995354518 0 0.415415013001887
vn -0.989821441880933 0 0.142314838273286
vn -0.989821441880933 0 0.142314838273286
vn -0.989821441880933 0 0.142314838273286
vn -0.909631995354518 0 0.415415013001887
vn -0.989821441880933 0 0.142314838273286
vn -0.989821441880933 0 -0.142314838273285
vn -0.989821441880933 0 -0.142314838273285
vn -0.989821441880933 0 -0.142314838273285
vn -0.989821441880933 0 0.142314838273286
vn -0.989821441880933 0 -0.142314838273285
vn -0.909631995354519 0 -0.415415013001886
vn -0.909631995354519 0 -0.415415013001886
vn -0.909631995354519 0 -0.415415013001886
vn -0.989821441880933 0 -0.142314838273285
vn -0.909631995354519 0 -0.415415013001886
vn -0.755749574354259 0 -0.654860733945285
vn -0.755749574354259 0 -0.654860733945285
vn -0.755749574354259 0 -0.654860733945285
vn -0.909631995354519 0 -0.415415013001886
vn -0.755749574354259 0 -0.654860733945285
vn -0.540640817455598 0 -0.841253532831181
vn -0.540640817455598 0 -0.841253532831181
vn -0.540640817455598 0 -0.841253532831181
vn -0.755749574354259 0 -0.654860733945285
vn -0.540640817455598 0 -0.841253532831181
vn -0.281732556841431 0 -0.959492973614497
vn -0.281732556841431 0 -0.959492973614497
vn -0.281732556841431 0 -0.959492973614497
vn -0.540640817455598 0 -0.841253532831181
vn -0.281732556841431 0 -0.959492973614497
vn -0.281732556841431 0 -0.959492973614497
vn -0 -1 -0
vn -0 -1 -0
vn -0 -1 -0
vn -0 -1 -0
vn -0 -1 -0
vn -0 -1 -0
vn -0 -1 -0
vn -0 -1 -0
vn -0 -1 -0
vn -0 -1 -0
vn -0 -1 -0
vn -0 -1 -0
vn -0 -1 -0
vn -0 -1 -0
vn -0 -1 -0
vn -0 -1 -0
vn -0 -1 -0
vn -0 -1 -0
vn -0 -1 -0
vn -0 -1 -0
vn -0 -1 -0
vn -0 -1 -0
vn -0 -1 -0
# 156 normals

vt 0 0
vt 0.02 2.44929359829471E-18
vt 1.91898594722899E-02 5.63465113682859E-03
vt 1.68250706566236E-02 0.010812816349112
vt 1.30972146789057E-02 1.51149914870852E-02
vt 8.30830026003773E-03 1.81926399070904E-02
vt 2.8462967654657E-03 1.97964288376187E-02
vt -2.8462967654657E-03 1.97964288376187E-02
vt -8.30830026003773E-03 1.81926399070904E-02
vt -1.30972146789057E-02 1.51149914870852E-02
vt -1.68250706566236E-02 0.010812816349112
vt -1.91898594722899E-02 5.63465113682859E-03
vt -0.02 0
vt -1.91898594722899E-02 -5.63465113682861E-03
vt -1.68250706566236E-02 -0.010812816349112
vt -1.30972146789057E-02 -1.51149914870852E-02
vt -8.30830026003772E-03 -1.81926399070904E-02
vt -2.8462967654657E-03 -1.97964288376187E-02
vt 2.84629676546572E-03 -1.97964288376187E-02
vt 8.30830026003774E-03 -1.81926399070904E-02
vt 1.30972146789057E-02 -1.51149914870852E-02
vt 1.68250706566236E-02 -1.08128163491119E-02
vt 0.01918985947229 -5.63465113682859E-03
vt 6.28318530717959 0.0875
vt 6.28318530717959 -0
vt 6.56878463932411 -0
vt 6.28318530717959 0.175
vt 6.56878463932411 0.0875
vt 6.28318530717959 0.2625
vt 6.56878463932411 0.175
vt 6.28318530717959 0.35
vt 6.56878463932411 0.2625
vt 0.571198664289053 -0
vt 0.571198664289053 0.0875
vt 0.571198664289053 0.175
vt 6.56878463932411 0.35
vt 0.571198664289053 0.2625
vt 0.85679799643358 -0
vt 0.85679799643358 0.0875
vt 0.85679799643358 0.175
vt 0.571198664289053 0.35
vt 0.85679799643358 0.2625
vt 1.14239732857811 -0
vt 1.14239732857811 0.0875
vt 1.14239732857811 0.175
vt 0.85679799643358 0.35
vt 1.14239732857811 0.2625
vt 1.42799666072263 -0
vt 1.42799666072263 0.0875
vt 1.42799666072263 0.175
vt 1.14239732857811 0.35
vt 1.42799666072263 0.2625
vt 1.71359599286716 -0
vt 1.71359599286716 0.0875
vt 1.71359599286716 0.175
vt 1.42799666072263 0.35
vt 1.71359599286716 0.2625
vt 1.99919532501169 -0
vt 1.99919532501169 0.0875
vt 1.99919532501169 0.175
vt 1.71359599286716 0.35
vt 1.99919532501169 0.2625
vt 2.28479465715621 -0
vt 2.28479465715621 0.0875
vt 2.28479465715621 0.175
vt 1.99919532501169 0.35
vt 2.28479465715621 0.2625
vt 2.57039398930074 -0
vt 2.57039398930074 0.0875
vt 2.57039398930074 0.175
vt 2.28479465715621 0.35
vt 2.57039398930074 0.2625
vt 2.85599332144527 -0
vt 2.85599332144527 0.0875
vt 2.85599332144527 0.175
vt 2.57039398930074 0.35
vt 2.85599332144527 0.2625
vt 3.14159265358979 -0
vt 3.14159265358979 0.0875
vt 3.14159265358979 0.175
vt 2.85599332144527 0.35
vt 3.14159265358979 0.2625
vt 3.42719198573432 -0
vt 3.42719198573432 0.0875
vt 3.42719198573432 0.175
vt 3.14159265358979 0.35
vt 3.42719198573432 0.2625
vt 3.71279131787885 -0
vt 3.71279131787885 0.0875
vt 3.71279131787885 0.175
vt 3.42719198573432 0.35
vt 3.71279131787885 0.2625
vt 3.99839065002337 -0
vt 3.99839065002337 0.0875
vt 3.99839065002337 0.175
vt 3.71279131787885 0.35
vt 3.99839065002337 0.2625
vt 4.2839899821679 -0
vt 4.2839899821679 0.0875
vt 4.2839899821679 0.175
vt 3.99839065002337 0.35
vt 4.2839899821679 0.2625
vt 4.56958931431243 -0
vt 4.56958931431243 0.0875
vt 4.56958931431243 0.175
vt 4.2839899821679 0.35
vt 4.56958931431243 0.2625
vt 4.85518864645695 -0
vt 4.85518864645695 0.0875
vt 4.85518864645695 0.175
vt 4.56958931431243 0.35
vt 4.85518864645695 0.2625
vt 5.14078797860148 -0
vt 5.14078797860148 0.0875
vt 5.14078797860148 0.175
vt 4.85518864645695 0.35
vt 5.14078797860148 0.2625
vt 5.42638731074601 -0
vt 5.42638731074601 0.0875
vt 5.42638731074601 0.175
vt 5.14078797860148 0.35
vt 5.42638731074601 0.2625
vt 5.71198664289053 -0
vt 5.71198664289053 0.0875
vt 5.71198664289053 0.175
vt 5.42638731074601 0.35
vt 5.71198664289053 0.2625
vt 5.99758597503506 -0
vt 5.99758597503506 0.0875
vt 5.99758597503506 0.175
vt 5.71198664289053 0.35
vt 5.99758597503506 0.2625
vt 5.99758597503506 0.35
vt 0 0
vt 0.02 7.34788079488412E-18
vt 0.01918985947229 -5.63465113682859E-03
vt 1.68250706566236E-02 -1.08128163491119E-02
vt 1.30972146789057E-02 -1.51149914870852E-02
vt 8.30830026003774E-03 -1.81926399070904E-02
vt 2.84629676546572E-03 -1.97964288376187E-02
vt -2.8462967654657E-03 -1.97964288376187E-02
vt -8.30830026003772E-03 -1.81926399070904E-02
vt -1.30972146789057E-02 -1.51149914870852E-02
vt -1.68250706566236E-02 -0.010812816349112
vt -1.91898594722899E-02 -5.63465113682861E-03
vt -0.02 0
vt -1.91898594722899E-02 5.63465113682859E-03
vt -1.68250706566236E-02 0.010812816349112
vt -1.30972146789057E-02 1.51149914870852E-02
vt -8.30830026003773E-03 1.81926399070904E-02
vt -2.8462967654657E-03 1.97964288376187E-02
vt 2.8462967654657E-03 1.97964288376187E-02
vt 8.30830026003773E-03 1.81926399070904E-02
vt 1.30972146789057E-02 1.51149914870852E-02
vt 1.68250706566236E-02 0.010812816349112
vt 1.91898594722899E-02 5.63465113682859E-03
# 156 UVs

g  mesh 1 cylind
usemtl  1 
f 55/55/55 52/52/52 50/50/50
f 57/57/57 56/56/56 52/52/52
f 58/58/58 54/54/54 53/53/53
f 59/59/59 55/55/55 54/54/54
f 60/60/60 57/57/57 55/55/55
f 62/62/62 61/61/61 57/57/57
f 63/63/63 59/59/59 58/58/58
f 64/64/64 60/60/60 59/59/59
f 65/65/65 62/62/62 60/60/60
f 67/67/67 66/66/66 62/62/62
f 68/68/68 64/64/64 63/63/63
f 69/69/69 65/65/65 64/64/64
f 70/70/70 67/67/67 65/65/65
f 72/72/72 71/71/71 67/67/67
f 73/73/73 69/69/69 68/68/68
f 74/74/74 70/70/70 69/69/69
f 75/75/75 72/72/72 70/70/70
f 77/77/77 76/76/76 72/72/72
f 78/78/78 74/74/74 73/73/73
f 79/79/79 75/75/75 74/74/74
f 80/80/80 77/77/77 75/75/75
f 82/82/82 81/81/81 77/77/77
f 83/83/83 79/79/79 78/78/78
f 84/84/84 80/80/80 79/79/79
f 85/85/85 82/82/82 80/80/80
f 87/87/87 86/86/86 82/82/82
f 88/88/88 84/84/84 83/83/83
f 89/89/89 85/85/85 84/84/84
f 90/90/90 87/87/87 85/85/85
f 92/92/92 91/91/91 87/87/87
f 93/93/93 89/89/89 88/88/88
f 94/94/94 90/90/90 89/89/89
f 95/95/95 92/92/92 90/90/90
f 97/97/97 96/96/96 92/92/92
f 98/98/98 94/94/94 93/93/93
f 99/99/99 95/95/95 94/94/94
f 100/100/100 97/97/97 95/95/95
f 102/102/102 101/101/101 97/97/97
f 103/103/103 99/99/99 98/98/98
f 104/104/104 100/100/100 99/99/99
f 105/105/105 102/102/102 100/100/100
f 107/107/107 106/106/106 102/102/102
f 108/108/108 104/104/104 103/103/103
f 109/109/109 105/105/105 104/104/104
f 110/110/110 107/107/107 105/105/105
f 112/112/112 111/111/111 107/107/107
f 113/113/113 109/109/109 108/108/108
f 114/114/114 110/110/110 109/109/109
f 115/115/115 112/112/112 110/110/110
f 117/117/117 116/116/116 112/112/112
f 118/118/118 114/114/114 113/113/113
f 119/119/119 115/115/115 114/114/114
f 120/120/120 117/117/117 115/115/115
f 122/122/122 121/121/121 117/117/117
f 123/123/123 119/119/119 118/118/118
f 124/124/124 120/120/120 119/119/119
f 125/125/125 122/122/122 120/120/120
f 127/127/127 126/126/126 122/122/122
f 128/128/128 124/124/124 123/123/123
f 129/129/129 125/125/125 124/124/124
f 130/130/130 127/127/127 125/125/125
f 132/132/132 131/131/131 127/127/127
f 25/25/25 129/129/129 128/128/128
f 24/24/24 130/130/130 129/129/129
f 27/27/27 132/132/132 130/130/130
f 29/29/29 133/133/133 132/132/132
f 54/54/54 50/50/50 49/49/49
f 132/132/132 27/27/27 29/29/29
f 130/130/130 24/24/24 27/27/27
f 129/129/129 25/25/25 24/24/24
f 131/131/131 132/132/132 133/133/133
f 127/127/127 130/130/130 132/132/132
f 125/125/125 129/129/129 130/130/130
f 124/124/124 128/128/128 129/129/129
f 126/126/126 127/127/127 131/131/131
f 122/122/122 125/125/125 127/127/127
f 120/120/120 124/124/124 125/125/125
f 119/119/119 123/123/123 124/124/124
f 121/121/121 122/122/122 126/126/126
f 117/117/117 120/120/120 122/122/122
f 115/115/115 119/119/119 120/120/120
f 114/114/114 118/118/118 119/119/119
f 116/116/116 117/117/117 121/121/121
f 112/112/112 115/115/115 117/117/117
f 110/110/110 114/114/114 115/115/115
f 109/109/109 113/113/113 114/114/114
f 111/111/111 112/112/112 116/116/116
f 107/107/107 110/110/110 112/112/112
f 105/105/105 109/109/109 110/110/110
f 104/104/104 108/108/108 109/109/109
f 106/106/106 107/107/107 111/111/111
f 102/102/102 105/105/105 107/107/107
f 100/100/100 104/104/104 105/105/105
f 99/99/99 103/103/103 104/104/104
f 101/101/101 102/102/102 106/106/106
f 97/97/97 100/100/100 102/102/102
f 95/95/95 99/99/99 100/100/100
f 94/94/94 98/98/98 99/99/99
f 96/96/96 97/97/97 101/101/101
f 92/92/92 95/95/95 97/97/97
f 90/90/90 94/94/94 95/95/95
f 89/89/89 93/93/93 94/94/94
f 91/91/91 92/92/92 96/96/96
f 87/87/87 90/90/90 92/92/92
f 85/85/85 89/89/89 90/90/90
f 84/84/84 88/88/88 89/89/89
f 86/86/86 87/87/87 91/91/91
f 82/82/82 85/85/85 87/87/87
f 80/80/80 84/84/84 85/85/85
f 79/79/79 83/83/83 84/84/84
f 81/81/81 82/82/82 86/86/86
f 77/77/77 80/80/80 82/82/82
f 75/75/75 79/79/79 80/80/80
f 74/74/74 78/78/78 79/79/79
f 76/76/76 77/77/77 81/81/81
f 72/72/72 75/75/75 77/77/77
f 70/70/70 74/74/74 75/75/75
f 69/69/69 73/73/73 74/74/74
f 71/71/71 72/72/72 76/76/76
f 67/67/67 70/70/70 72/72/72
f 65/65/65 69/69/69 70/70/70
f 64/64/64 68/68/68 69/69/69
f 66/66/66 67/67/67 71/71/71
f 62/62/62 65/65/65 67/67/67
f 60/60/60 64/64/64 65/65/65
f 59/59/59 63/63/63 64/64/64
f 61/61/61 62/62/62 66/66/66
f 57/57/57 60/60/60 62/62/62
f 55/55/55 59/59/59 60/60/60
f 54/54/54 58/58/58 59/59/59
f 56/56/56 57/57/57 61/61/61
f 52/52/52 55/55/55 57/57/57
f 50/50/50 54/54/54 55/55/55
f 49/49/49 53/53/53 54/54/54
f 51/51/51 52/52/52 56/56/56
f 47/47/47 50/50/50 52/52/52
f 45/45/45 49/49/49 50/50/50
f 44/44/44 48/48/48 49/49/49
f 46/46/46 47/47/47 51/51/51
f 42/42/42 45/45/45 47/47/47
f 40/40/40 44/44/44 45/45/45
f 39/39/39 43/43/43 44/44/44
f 41/41/41 42/42/42 46/46/46
f 37/37/37 40/40/40 42/42/42
f 35/35/35 39/39/39 40/40/40
f 34/34/34 38/38/38 39/39/39
f 36/36/36 37/37/37 41/41/41
f 32/32/32 35/35/35 37/37/37
f 30/30/30 34/34/34 35/35/35
f 28/28/28 33/33/33 34/34/34
f 31/31/31 32/32/32 36/36/36
f 29/29/29 30/30/30 32/32/32
f 27/27/27 28/28/28 30/30/30
f 24/24/24 26/26/26 28/28/28
f 53/53/53 49/49/49 48/48/48
f 52/52/52 51/51/51 47/47/47
f 50/50/50 47/47/47 45/45/45
f 49/49/49 45/45/45 44/44/44
f 48/48/48 44/44/44 43/43/43
f 47/47/47 46/46/46 42/42/42
f 45/45/45 42/42/42 40/40/40
f 44/44/44 40/40/40 39/39/39
f 43/43/43 39/39/39 38/38/38
f 42/42/42 41/41/41 37/37/37
f 40/40/40 37/37/37 35/35/35
f 39/39/39 35/35/35 34/34/34
f 38/38/38 34/34/34 33/33/33
f 37/37/37 36/36/36 32/32/32
f 35/35/35 32/32/32 30/30/30
f 34/34/34 30/30/30 28/28/28
f 33/33/33 28/28/28 26/26/26
f 32/32/32 31/31/31 29/29/29
f 30/30/30 29/29/29 27/27/27
f 28/28/28 27/27/27 24/24/24
f 26/26/26 24/24/24 25/25/25
f 133/133/133 29/29/29 31/31/31
f 3/3/3 1/1/1 2/2/2
f 1/1/1 3/3/3 4/4/4
f 1/1/1 4/4/4 5/5/5
f 1/1/1 5/5/5 6/6/6
f 1/1/1 6/6/6 7/7/7
f 1/1/1 7/7/7 8/8/8
f 1/1/1 8/8/8 9/9/9
f 1/1/1 9/9/9 10/10/10
f 1/1/1 10/10/10 11/11/11
f 1/1/1 11/11/11 12/12/12
f 1/1/1 12/12/12 13/13/13
f 1/1/1 13/13/13 14/14/14
f 1/1/1 14/14/14 15/15/15
f 1/1/1 15/15/15 16/16/16
f 1/1/1 16/16/16 17/17/17
f 1/1/1 17/17/17 18/18/18
f 1/1/1 18/18/18 19/19/19
f 1/1/1 19/19/19 20/20/20
f 1/1/1 20/20/20 21/21/21
f 1/1/1 21/21/21 22/22/22
f 1/1/1 22/22/22 23/23/23
f 1/1/1 23/23/23 2/2/2
f 134/134/134 155/155/155 156/156/156
f 134/134/134 154/154/154 155/155/155
f 134/134/134 153/153/153 154/154/154
f 134/134/134 152/152/152 153/153/153
f 134/134/134 151/151/151 152/152/152
f 134/134/134 150/150/150 151/151/151
f 134/134/134 149/149/149 150/150/150
f 134/134/134 148/148/148 149/149/149
f 134/134/134 147/147/147 148/148/148
f 134/134/134 146/146/146 147/147/147
f 134/134/134 145/145/145 146/146/146
f 134/134/134 144/144/144 145/145/145
f 134/134/134 143/143/143 144/144/144
f 134/134/134 142/142/142 143/143/143
f 134/134/134 141/141/141 142/142/142
f 134/134/134 140/140/140 141/141/141
f 134/134/134 139/139/139 140/140/140
f 134/134/134 138/138/138 139/139/139
f 134/134/134 137/137/137 138/138/138
f 134/134/134 136/136/136 137/137/137
f 136/136/136 134/134/134 135/135/135
f 134/134/134 156/156/156 135/135/135

